<?xml version="1.0" encoding="UTF-8" standalone="no"?>
<!-- Created with Inkscape (http://www.inkscape.org/) -->

<svg
   version="1.1"
   id="svg1"
   width="666.66669"
   height="666.66669"
   viewBox="0 0 666.66669 666.66669"
   sodipodi:docname="ytdlp-systray.svg"
   inkscape:version="1.4.2 (f4327f4, 2025-05-13)"
   xmlns:inkscape="http://www.inkscape.org/namespaces/inkscape"
   xmlns:sodipodi="http://sodipodi.sourceforge.net/DTD/sodipodi-0.dtd"
   xmlns="http://www.w3.org/2000/svg"
   xmlns:svg="http://www.w3.org/2000/svg">
  <defs
     id="defs1" />
  <sodipodi:namedview
     id="namedview1"
     pagecolor="#ffffff"
     bordercolor="#000000"
     borderopacity="0.25"
     inkscape:showpageshadow="2"
     inkscape:pageopacity="0.0"
     inkscape:pagecheckerboard="0"
     inkscape:deskcolor="#d1d1d1"
     inkscape:zoom="1"
     inkscape:cx="334"
     inkscape:cy="333.5"
     inkscape:window-width="3840"
     inkscape:window-height="2054"
     inkscape:window-x="-11"
     inkscape:window-y="-11"
     inkscape:window-maximized="1"
     inkscape:current-layer="g1">
    <inkscape:page
       x="0"
       y="0"
       inkscape:label="1"
       id="page1"
       width="666.66669"
       height="666.66669"
       margin="0"
       bleed="0" />
  </sodipodi:namedview>
  <g
     id="g1"
     inkscape:groupmode="layer"
     inkscape:label="1">
    <path
       id="path3"
       d="M 240.04933,64.472018 H 128.64266 c -38.823862,0 -70.297328,31.472 -70.297328,70.296002 v 111.40799 c 0,38.824 31.473466,70.29734 70.297328,70.29734 h 111.40667 c 38.82533,0 70.29866,-31.47334 70.29866,-70.29734 V 134.76802 c 0,-38.824002 -31.47333,-70.296002 -70.29866,-70.296002"
       style="fill:#4aadff;fill-opacity:1;fill-rule:nonzero;stroke:none;stroke-width:0.133333" />
    <path
       id="path4"
       d="m 128.64266,316.47335 h 111.40667 c 19.412,0 36.98666,-7.868 49.708,-20.58934 L 78.934931,85.061351 C 66.213998,97.782684 58.345332,115.35602 58.345332,134.76802 v 111.40799 c 0,38.824 31.473466,70.29734 70.297328,70.29734"
       style="fill:#297acc;fill-opacity:1;fill-rule:nonzero;stroke:none;stroke-width:0.133333" />
    <path
       id="path5"
       d="m 128.64266,296.47335 c -27.73426,0 -50.297862,-22.564 -50.297862,-50.29734 V 134.76802 c 0,-27.73467 22.563602,-50.297335 50.297862,-50.297335 h 111.40667 c 27.73466,0 50.29866,22.562665 50.29866,50.297335 v 111.40799 c 0,27.73334 -22.564,50.29734 -50.29866,50.29734 H 128.64266"
       style="fill:#2358b7;fill-opacity:1;fill-rule:nonzero;stroke:none;stroke-width:0.133333" />
    <path
       id="path6"
       d="m 153.18533,228.69068 h 62.72533 v -11.19333 h -62.72533 v 11.19333"
       style="fill:#ffffff;fill-opacity:1;fill-rule:nonzero;stroke:none;stroke-width:0.133333" />
    <path
       id="path7"
       d="m 184.548,207.61601 50.21866,-50.21866 h -18.856 v -47.14 h -62.72533 v 47.14 h -18.856 l 50.21867,50.21866"
       style="fill:#ffffff;fill-opacity:1;fill-rule:nonzero;stroke:none;stroke-width:0.133333" />
    <path
       id="path8"
       d="m 611.59198,191.15868 c 0,71.556 -58.00666,129.56267 -129.56266,129.56267 -71.55466,0 -129.56266,-58.00667 -129.56266,-129.56267 0,-71.55466 58.008,-129.561328 129.56266,-129.561328 71.556,0 129.56266,58.006668 129.56266,129.561328"
       style="fill:#9fc914;fill-opacity:1;fill-rule:nonzero;stroke:none;stroke-width:0.133333" />
    <path
       id="path9"
       d="m 482.02932,301.42535 c -60.89866,0 -110.26533,-49.368 -110.26533,-110.26667 0,-60.89866 49.36667,-110.265329 110.26533,-110.265329 60.89867,0 110.26533,49.366669 110.26533,110.265329 0,60.89867 -49.36666,110.26667 -110.26533,110.26667 z m 0,-239.827998 c -71.55466,0 -129.56266,58.006668 -129.56266,129.561328 0,71.556 58.008,129.56267 129.56266,129.56267 71.556,0 129.56266,-58.00667 129.56266,-129.56267 0,-71.55466 -58.00666,-129.561328 -129.56266,-129.561328"
       style="fill:#618c15;fill-opacity:1;fill-rule:nonzero;stroke:none;stroke-width:0.133333" />
    <path
       id="path10"
       d="m 482.02932,320.72135 c 35.77733,0 68.168,-14.50134 91.61467,-37.948 l -13.644,-13.64534 c -19.95467,19.95467 -47.52134,32.29734 -77.97067,32.29734 -60.89866,0 -110.26533,-49.368 -110.26533,-110.26667 0,-30.44933 12.34267,-58.016 32.296,-77.96933 L 390.41466,99.544018 c -23.44534,23.446662 -37.948,55.837332 -37.948,91.614662 0,71.556 58.008,129.56267 129.56266,129.56267"
       style="fill:#487019;fill-opacity:1;fill-rule:nonzero;stroke:none;stroke-width:0.133333" />
    <path
       id="path11"
       d="m 482.23199,232.96668 h -12.45467 v -8.50533 h 12.45467 z m -19.176,0 h -37.95333 v -8.50533 h 37.95333 z m -46.1,-15.46933 v 40.244 h 130.552 v -40.244 h -130.552"
       style="fill:#ffffff;fill-opacity:1;fill-rule:nonzero;stroke:none;stroke-width:0.133333" />
    <path
       id="path12"
       d="m 513.59465,106.34268 h -62.72533 v 13.42 h 62.72533 v -13.42"
       style="fill:#ffffff;fill-opacity:1;fill-rule:nonzero;stroke:none;stroke-width:0.133333" />
    <path
       id="path13"
       d="m 532.45199,157.39735 h -18.85734 v -29.37733 h -62.72533 v 29.37733 h -18.856 l 50.21867,50.21866 50.22,-50.21866"
       style="fill:#ffffff;fill-opacity:1;fill-rule:nonzero;stroke:none;stroke-width:0.133333" />
    <path
       id="path14"
       d="m 314.11199,480.95734 c 0,71.55627 -58.00666,129.5624 -129.56266,129.5624 -71.55453,0 -129.561865,-58.00613 -129.561865,-129.5624 0,-71.55466 58.007335,-129.56266 129.561865,-129.56266 71.556,0 129.56266,58.008 129.56266,129.56266"
       style="fill:#9fc914;fill-opacity:1;fill-rule:nonzero;stroke:none;stroke-width:0.133333" />
    <path
       id="path15"
       d="m 184.54933,591.22241 c -60.89773,0 -110.264932,-49.36667 -110.264932,-110.26507 0,-60.89733 49.367202,-110.26533 110.264932,-110.26533 60.89866,0 110.26666,49.368 110.26666,110.26533 0,60.8984 -49.368,110.26507 -110.26666,110.26507 z m 0,-239.82773 c -71.55453,0 -129.561865,58.008 -129.561865,129.56266 0,71.55627 58.007335,129.5624 129.561865,129.5624 71.556,0 129.56266,-58.00613 129.56266,-129.5624 0,-71.55466 -58.00666,-129.56266 -129.56266,-129.56266"
       style="fill:#618c15;fill-opacity:1;fill-rule:nonzero;stroke:none;stroke-width:0.133333" />
    <path
       id="path16"
       d="m 184.54933,610.51974 c 35.77733,0 68.168,-14.50093 91.61466,-37.94787 l -13.64533,-13.64533 c -19.95333,19.95467 -47.52,32.29587 -77.96933,32.29587 -60.89773,0 -110.264932,-49.36667 -110.264932,-110.26507 0,-30.44933 12.3416,-58.016 32.295862,-77.96933 L 92.935464,389.34268 c -23.445866,23.44666 -37.947999,55.83733 -37.947999,91.61466 0,71.55627 58.007335,129.5624 129.561865,129.5624"
       style="fill:#487019;fill-opacity:1;fill-rule:nonzero;stroke:none;stroke-width:0.133333" />
    <path
       id="path17"
       d="m 204.62266,489.66801 h -39.74133 v 35.39733 h -15.96 l 35.83067,35.83053 35.83066,-35.83053 h -15.96 v -35.39733"
       style="fill:#ffffff;fill-opacity:1;fill-rule:nonzero;stroke:none;stroke-width:0.133333" />
    <path
       id="path18"
       d="m 231.39333,450.66668 c -3.116,0 -6.124,0.46266 -8.96267,1.312 -1.17067,-24.136 -21.108,-43.34534 -45.53333,-43.34534 -24.292,0 -44.13893,19.00134 -45.50667,42.94934 -13.62186,3.36533 -23.72346,15.66266 -23.72346,30.32266 0,17.252 13.98546,31.24 31.23813,31.24 H 155.548 v -32.81067 h 58.40799 v 32.81067 h 17.43734 c 17.25333,0 31.23866,-13.988 31.23866,-31.24 0,-17.25333 -13.98533,-31.23866 -31.23866,-31.23866"
       style="fill:#ffffff;fill-opacity:1;fill-rule:nonzero;stroke:none;stroke-width:0.133333" />
    <path
       id="path19"
       d="m 537.93599,354.95734 h -111.408 c -38.824,0 -70.296,31.472 -70.296,70.29734 v 111.40679 c 0,38.824 31.472,70.29733 70.296,70.29733 h 111.408 c 38.824,0 70.29733,-31.47333 70.29733,-70.29733 V 425.25468 c 0,-38.82534 -31.47333,-70.29734 -70.29733,-70.29734"
       style="fill:#aa3073;fill-opacity:1;fill-rule:nonzero;stroke:none;stroke-width:0.133333" />
    <path
       id="path20"
       d="m 426.52799,606.9588 h 111.408 c 19.412,0 36.98533,-7.86813 49.70666,-20.58946 L 376.81999,375.54668 c -12.72,12.72 -20.588,30.296 -20.588,49.708 v 111.40679 c 0,38.824 31.472,70.29733 70.296,70.29733"
       style="fill:#872971;fill-opacity:1;fill-rule:nonzero;stroke:none;stroke-width:0.133333" />
    <path
       id="path21"
       d="m 426.52799,586.95881 c -27.73467,0 -50.29733,-22.564 -50.29733,-50.29734 V 425.25468 c 0,-27.73467 22.56266,-50.29867 50.29733,-50.29867 h 111.40666 c 27.73467,0 50.29867,22.564 50.29867,50.29867 v 111.40679 c 0,27.73334 -22.564,50.29734 -50.29867,50.29734 H 426.52799"
       style="fill:#de4768;fill-opacity:1;fill-rule:nonzero;stroke:none;stroke-width:0.133333" />
    <path
       id="path22"
       d="m 533.49732,501.62667 v 36.90254 H 431.37199 v -36.90254 h -13.036 v 48.23587 h 128.196 v -48.23587 h -13.03467"
       style="fill:#ffffff;fill-opacity:1;fill-rule:nonzero;stroke:none;stroke-width:0.133333" />
    <path
       id="path23"
       d="m 452.41332,445.96134 v 28.396 h -17.75866 l 47.29733,47.29733 47.29733,-47.29733 h -17.75867 v -28.396 c 0,-29.65733 -20.34,-33.94133 -29.53866,-33.94133 -9.19867,0 -62.91333,0 -62.91333,0 0,0 33.37466,1.37867 33.37466,33.94133"
       style="fill:#ffffff;fill-opacity:1;fill-rule:nonzero;stroke:none;stroke-width:0.133333" />
    <path
       id="path24"
       d="m 107.19141,262.38672 c 1.5625,0 3.01562,-0.23437 4.34375,-0.70312 1.32812,-0.48438 2.46875,-1.17188 3.45312,-2.04688 1,-0.875 1.75,-1.95312 2.29688,-3.20312 0.53125,-1.21875 0.79687,-2.60938 0.79687,-4.125 0,-1.53125 -0.26562,-2.92188 -0.79687,-4.17188 -0.54688,-1.21875 -1.29688,-2.29687 -2.29688,-3.17187 -0.98437,-0.875 -2.125,-1.5625 -3.45312,-2.04688 -1.32813,-0.46875 -2.8125,-0.70312 -4.39063,-0.70312 h -8.499999 v 20.17187 z m -2.875,-4.8125 v -10.54687 h 2.82812 c 1.04688,0 1.98438,0.20312 2.75,0.57812 0.76563,0.39063 1.35938,0.98438 1.78125,1.75 0.42188,0.76563 0.625,1.75 0.625,2.92188 0,1.15625 -0.20312,2.15625 -0.625,2.9375 -0.42187,0.79687 -1.01562,1.39062 -1.78125,1.76562 -0.76562,0.39063 -1.70312,0.59375 -2.75,0.59375 z m 30.39843,4.42188 c 1.32813,-0.51563 2.45313,-1.25 3.45313,-2.21875 0.98437,-0.9375 1.75,-2.0625 2.29687,-3.34375 0.53125,-1.26563 0.78125,-2.625 0.78125,-4.125 0,-1.51563 -0.25,-2.92188 -0.78125,-4.20313 -0.54687,-1.26562 -1.3125,-2.375 -2.29687,-3.3125 -1,-0.9375 -2.125,-1.67187 -3.45313,-2.20312 -1.34375,-0.51563 -2.8125,-0.76563 -4.39062,-0.76563 -1.59375,0 -3.03125,0.25 -4.375,0.76563 -1.32813,0.53125 -2.48438,1.26562 -3.48438,2.20312 -0.98437,0.9375 -1.71875,2.04688 -2.26562,3.3125 -0.53125,1.28125 -0.8125,2.67188 -0.8125,4.17188 0,1.5 0.28125,2.89062 0.8125,4.15625 0.54687,1.28125 1.32812,2.40625 2.32812,3.34375 0.98438,0.9375 2.15625,1.67187 3.48438,2.21875 1.32812,0.53125 2.78125,0.78125 4.35937,0.78125 1.5625,0 3,-0.25 4.34375,-0.78125 z m -6.51562,-4.59375 c -0.65625,-0.25 -1.20313,-0.625 -1.65625,-1.10938 -0.45313,-0.48437 -0.78125,-1.04687 -1.01563,-1.71875 -0.25,-0.6875 -0.35937,-1.45312 -0.35937,-2.29687 0,-1.10938 0.1875,-2.09375 0.60937,-2.92188 0.4375,-0.82812 1.03125,-1.4375 1.79688,-1.89062 0.76562,-0.4375 1.6875,-0.65625 2.75,-0.65625 0.78125,0 1.5,0.10937 2.14062,0.35937 0.625,0.26563 1.17188,0.625 1.625,1.10938 0.45313,0.48437 0.78125,1.07812 1.04688,1.73437 0.21875,0.67188 0.32812,1.4375 0.32812,2.26563 0,1.09375 -0.1875,2.09375 -0.60937,2.90625 -0.4375,0.82812 -1.03125,1.48437 -1.79688,1.9375 -0.76562,0.45312 -1.6875,0.67187 -2.73437,0.67187 -0.79688,0 -1.51563,-0.14062 -2.125,-0.39062 z m 24.35937,4.98437 3.1875,-11.21875 3.20313,11.21875 h 4.70312 l 6.34375,-20.17187 h -5.57812 l -3.17188,11.01562 -3.14062,-11.01562 h -4.67188 l -3.125,10.96875 -3.17187,-10.96875 h -5.625 l 6.34375,20.17187 z m 37.46875,0 v -20.17187 h -5.65625 v 10.6875 l -8.5,-10.6875 h -3.96875 v 20.17187 h 5.67188 v -10.3125 l 8.20312,10.3125 z m 17.39453,0 v -4.8125 h -8.375 V 242.21485 H 193.375 v 20.17187 z m 15.78906,-0.39062 c 1.32813,-0.51563 2.45313,-1.25 3.45313,-2.21875 0.98437,-0.9375 1.75,-2.0625 2.29687,-3.34375 0.53126,-1.26563 0.78126,-2.625 0.78126,-4.125 0,-1.51563 -0.25,-2.92188 -0.78126,-4.20313 -0.54687,-1.26562 -1.3125,-2.375 -2.29687,-3.3125 -1,-0.9375 -2.125,-1.67187 -3.45313,-2.20312 -1.34374,-0.51563 -2.8125,-0.76563 -4.39062,-0.76563 -1.59375,0 -3.03125,0.25 -4.375,0.76563 -1.32812,0.53125 -2.48438,1.26562 -3.48438,2.20312 -0.98437,0.9375 -1.71874,2.04688 -2.26562,3.3125 -0.53125,1.28125 -0.8125,2.67188 -0.8125,4.17188 0,1.5 0.28125,2.89062 0.8125,4.15625 0.54688,1.28125 1.32812,2.40625 2.32812,3.34375 0.98438,0.9375 2.15626,1.67187 3.48438,2.21875 1.32812,0.53125 2.78125,0.78125 4.35938,0.78125 1.5625,0 3,-0.25 4.34374,-0.78125 z m -6.51562,-4.59375 c -0.65625,-0.25 -1.20312,-0.625 -1.65625,-1.10938 -0.45313,-0.48437 -0.78125,-1.04687 -1.01563,-1.71875 -0.25,-0.6875 -0.35937,-1.45312 -0.35937,-2.29687 0,-1.10938 0.1875,-2.09375 0.60937,-2.92188 0.4375,-0.82812 1.03126,-1.4375 1.79688,-1.89062 0.76562,-0.4375 1.6875,-0.65625 2.75,-0.65625 0.78125,0 1.5,0.10937 2.14062,0.35937 0.625,0.26563 1.17188,0.625 1.625,1.10938 0.45313,0.48437 0.78126,1.07812 1.04688,1.73437 0.21875,0.67188 0.32812,1.4375 0.32812,2.26563 0,1.09375 -0.1875,2.09375 -0.60937,2.90625 -0.4375,0.82812 -1.03125,1.48437 -1.79687,1.9375 -0.76563,0.45312 -1.6875,0.67187 -2.73438,0.67187 -0.79688,0 -1.51562,-0.14062 -2.125,-0.39062 z m 21.08985,-2.82813 2.125,-6.26562 2.04686,6.26562 z m -2.625,7.8125 1.125,-3.40625 h 7.14062 l 1.10938,3.40625 h 5.89062 l -7.59376,-20.17187 h -5.78124 l -7.67188,20.17187 z m 25.42577,0 c 1.56251,0 3.01563,-0.23437 4.34376,-0.70312 1.32812,-0.48438 2.46875,-1.17188 3.45312,-2.04688 1,-0.875 1.75,-1.95312 2.29688,-3.20312 0.53124,-1.21875 0.79687,-2.60938 0.79687,-4.125 0,-1.53125 -0.26563,-2.92188 -0.79687,-4.17188 -0.54688,-1.21875 -1.29688,-2.29687 -2.29688,-3.17187 -0.98437,-0.875 -2.125,-1.5625 -3.45312,-2.04688 -1.32813,-0.46875 -2.81251,-0.70312 -4.39063,-0.70312 h -8.5 v 20.17187 z m -2.875,-4.8125 v -10.54687 h 2.82813 c 1.04687,0 1.98438,0.20312 2.75,0.57812 0.76563,0.39063 1.35938,0.98438 1.78124,1.75 0.42188,0.76563 0.625,1.75 0.625,2.92188 0,1.15625 -0.20312,2.15625 -0.625,2.9375 -0.42186,0.79687 -1.01561,1.39062 -1.78124,1.76562 -0.76562,0.39063 -1.70313,0.59375 -2.75,0.59375 z m 0,0"
       style="fill:#ffffff;fill-opacity:1;fill-rule:nonzero;stroke:none;stroke-width:1.33333"
       aria-label="DOWNLOAD" />
  </g>
</svg>
